<?xml version="1.0" encoding="UTF-8" ?>
<svg version="1.1" width="27" height="11" xmlns="http://www.w3.org/2000/svg" shape-rendering="crispEdges">
<rect x="0" y="0" width="1" height="1" fill="#4B7AA3" />
<rect x="5" y="0" width="1" height="1" fill="#4B7AA3" />
<rect x="7" y="0" width="1" height="1" fill="#4B7AA3" />
<rect x="9" y="0" width="1" height="1" fill="#4B7AA3" />
<rect x="11" y="0" width="1" height="1" fill="#FAE373" />
<rect x="12" y="0" width="1" height="1" fill="#FAE373" />
<rect x="13" y="0" width="1" height="1" fill="#FAE373" />
<rect x="14" y="0" width="1" height="1" fill="#FAE373" />
<rect x="15" y="0" width="1" height="1" fill="#FAE373" />
<rect x="17" y="0" width="1" height="1" fill="#FAE373" />
<rect x="18" y="0" width="1" height="1" fill="#FAE373" />
<rect x="19" y="0" width="1" height="1" fill="#FAE373" />
<rect x="20" y="0" width="1" height="1" fill="#FAE373" />
<rect x="23" y="0" width="1" height="1" fill="#FAE373" />
<rect x="0" y="1" width="1" height="1" fill="#4B7AA3" />
<rect x="1" y="1" width="1" height="1" fill="#4B7AA3" />
<rect x="4" y="1" width="1" height="1" fill="#4B7AA3" />
<rect x="5" y="1" width="1" height="1" fill="#4B7AA3" />
<rect x="7" y="1" width="1" height="1" fill="#4B7AA3" />
<rect x="9" y="1" width="1" height="1" fill="#4B7AA3" />
<rect x="11" y="1" width="1" height="1" fill="#FAE373" />
<rect x="17" y="1" width="1" height="1" fill="#FAE373" />
<rect x="20" y="1" width="1" height="1" fill="#FAE373" />
<rect x="23" y="1" width="1" height="1" fill="#FAE373" />
<rect x="0" y="2" width="1" height="1" fill="#4B7AA3" />
<rect x="2" y="2" width="1" height="1" fill="#4B7AA3" />
<rect x="3" y="2" width="1" height="1" fill="#4B7AA3" />
<rect x="5" y="2" width="1" height="1" fill="#4B7AA3" />
<rect x="7" y="2" width="1" height="1" fill="#4B7AA3" />
<rect x="8" y="2" width="1" height="1" fill="#4B7AA3" />
<rect x="9" y="2" width="1" height="1" fill="#4B7AA3" />
<rect x="11" y="2" width="1" height="1" fill="#FAE373" />
<rect x="17" y="2" width="1" height="1" fill="#FAE373" />
<rect x="20" y="2" width="1" height="1" fill="#FAE373" />
<rect x="23" y="2" width="1" height="1" fill="#FAE373" />
<rect x="0" y="3" width="1" height="1" fill="#4B7AA3" />
<rect x="5" y="3" width="1" height="1" fill="#4B7AA3" />
<rect x="9" y="3" width="1" height="1" fill="#4B7AA3" />
<rect x="11" y="3" width="1" height="1" fill="#FAE373" />
<rect x="17" y="3" width="1" height="1" fill="#FAE373" />
<rect x="20" y="3" width="1" height="1" fill="#FAE373" />
<rect x="23" y="3" width="1" height="1" fill="#FAE373" />
<rect x="0" y="4" width="1" height="1" fill="#4B7AA3" />
<rect x="5" y="4" width="1" height="1" fill="#4B7AA3" />
<rect x="9" y="4" width="1" height="1" fill="#4B7AA3" />
<rect x="11" y="4" width="1" height="1" fill="#FAE373" />
<rect x="12" y="4" width="1" height="1" fill="#FAE373" />
<rect x="13" y="4" width="1" height="1" fill="#FAE373" />
<rect x="14" y="4" width="1" height="1" fill="#FAE373" />
<rect x="15" y="4" width="1" height="1" fill="#FAE373" />
<rect x="17" y="4" width="1" height="1" fill="#FAE373" />
<rect x="20" y="4" width="1" height="1" fill="#FAE373" />
<rect x="23" y="4" width="1" height="1" fill="#FAE373" />
<rect x="0" y="5" width="1" height="1" fill="#4B7AA3" />
<rect x="5" y="5" width="1" height="1" fill="#4B7AA3" />
<rect x="9" y="5" width="1" height="1" fill="#4B7AA3" />
<rect x="15" y="5" width="1" height="1" fill="#FAE373" />
<rect x="17" y="5" width="1" height="1" fill="#FAE373" />
<rect x="20" y="5" width="1" height="1" fill="#FAE373" />
<rect x="23" y="5" width="1" height="1" fill="#FAE373" />
<rect x="0" y="6" width="1" height="1" fill="#4B7AA3" />
<rect x="5" y="6" width="1" height="1" fill="#4B7AA3" />
<rect x="9" y="6" width="1" height="1" fill="#4B7AA3" />
<rect x="15" y="6" width="1" height="1" fill="#FAE373" />
<rect x="17" y="6" width="1" height="1" fill="#FAE373" />
<rect x="20" y="6" width="1" height="1" fill="#FAE373" />
<rect x="23" y="6" width="1" height="1" fill="#FAE373" />
<rect x="0" y="7" width="1" height="1" fill="#4B7AA3" />
<rect x="5" y="7" width="1" height="1" fill="#4B7AA3" />
<rect x="9" y="7" width="1" height="1" fill="#4B7AA3" />
<rect x="15" y="7" width="1" height="1" fill="#FAE373" />
<rect x="17" y="7" width="1" height="1" fill="#FAE373" />
<rect x="20" y="7" width="1" height="1" fill="#FAE373" />
<rect x="23" y="7" width="1" height="1" fill="#FAE373" />
<rect x="0" y="8" width="1" height="1" fill="#4B7AA3" />
<rect x="5" y="8" width="1" height="1" fill="#4B7AA3" />
<rect x="9" y="8" width="1" height="1" fill="#4B7AA3" />
<rect x="15" y="8" width="1" height="1" fill="#FAE373" />
<rect x="17" y="8" width="1" height="1" fill="#FAE373" />
<rect x="20" y="8" width="1" height="1" fill="#FAE373" />
<rect x="23" y="8" width="1" height="1" fill="#FAE373" />
<rect x="0" y="9" width="1" height="1" fill="#4B7AA3" />
<rect x="5" y="9" width="1" height="1" fill="#4B7AA3" />
<rect x="7" y="9" width="1" height="1" fill="#4B7AA3" />
<rect x="9" y="9" width="1" height="1" fill="#4B7AA3" />
<rect x="15" y="9" width="1" height="1" fill="#FAE373" />
<rect x="17" y="9" width="1" height="1" fill="#FAE373" />
<rect x="20" y="9" width="1" height="1" fill="#FAE373" />
<rect x="23" y="9" width="1" height="1" fill="#FAE373" />
<rect x="0" y="10" width="1" height="1" fill="#4B7AA3" />
<rect x="5" y="10" width="1" height="1" fill="#4B7AA3" />
<rect x="7" y="10" width="1" height="1" fill="#4B7AA3" />
<rect x="8" y="10" width="1" height="1" fill="#4B7AA3" />
<rect x="9" y="10" width="1" height="1" fill="#4B7AA3" />
<rect x="11" y="10" width="1" height="1" fill="#FAE373" />
<rect x="12" y="10" width="1" height="1" fill="#FAE373" />
<rect x="13" y="10" width="1" height="1" fill="#FAE373" />
<rect x="14" y="10" width="1" height="1" fill="#FAE373" />
<rect x="15" y="10" width="1" height="1" fill="#FAE373" />
<rect x="17" y="10" width="1" height="1" fill="#FAE373" />
<rect x="18" y="10" width="1" height="1" fill="#FAE373" />
<rect x="19" y="10" width="1" height="1" fill="#FAE373" />
<rect x="20" y="10" width="1" height="1" fill="#FAE373" />
<rect x="21" y="10" width="1" height="1" fill="#FAE373" />
<rect x="23" y="10" width="1" height="1" fill="#FAE373" />
<rect x="24" y="10" width="1" height="1" fill="#FAE373" />
<rect x="25" y="10" width="1" height="1" fill="#FAE373" />
<rect x="26" y="10" width="1" height="1" fill="#FAE373" />
</svg>