<?xml version="1.0" encoding="UTF-8" ?>
<svg version="1.1" width="29" height="16" xmlns="http://www.w3.org/2000/svg" shape-rendering="crispEdges">
<rect x="14" y="0" width="1" height="1" fill="#4B7AA3" />
<rect x="15" y="0" width="1" height="1" fill="#4B7AA3" />
<rect x="16" y="0" width="1" height="1" fill="#4B7AA3" />
<rect x="13" y="1" width="1" height="1" fill="#4B7AA3" />
<rect x="17" y="1" width="1" height="1" fill="#4B7AA3" />
<rect x="18" y="1" width="1" height="1" fill="#4B7AA3" />
<rect x="19" y="1" width="1" height="1" fill="#4B7AA3" />
<rect x="14" y="2" width="1" height="1" fill="#4B7AA3" />
<rect x="20" y="2" width="1" height="1" fill="#4B7AA3" />
<rect x="14" y="3" width="1" height="1" fill="#4B7AA3" />
<rect x="17" y="3" width="1" height="1" fill="#4B7AA3" />
<rect x="18" y="3" width="1" height="1" fill="#4B7AA3" />
<rect x="21" y="3" width="1" height="1" fill="#4B7AA3" />
<rect x="15" y="4" width="1" height="1" fill="#4B7AA3" />
<rect x="18" y="4" width="1" height="1" fill="#4B7AA3" />
<rect x="22" y="4" width="1" height="1" fill="#4B7AA3" />
<rect x="16" y="5" width="1" height="1" fill="#4B7AA3" />
<rect x="22" y="5" width="1" height="1" fill="#4B7AA3" />
<rect x="16" y="6" width="1" height="1" fill="#4B7AA3" />
<rect x="23" y="6" width="1" height="1" fill="#4B7AA3" />
<rect x="15" y="7" width="1" height="1" fill="#4B7AA3" />
<rect x="18" y="7" width="1" height="1" fill="#4B7AA3" />
<rect x="23" y="7" width="1" height="1" fill="#4B7AA3" />
<rect x="25" y="7" width="1" height="1" fill="#4B7AA3" />
<rect x="26" y="7" width="1" height="1" fill="#4B7AA3" />
<rect x="15" y="8" width="1" height="1" fill="#4B7AA3" />
<rect x="16" y="8" width="1" height="1" fill="#4B7AA3" />
<rect x="17" y="8" width="1" height="1" fill="#4B7AA3" />
<rect x="19" y="8" width="1" height="1" fill="#4B7AA3" />
<rect x="24" y="8" width="1" height="1" fill="#4B7AA3" />
<rect x="26" y="8" width="1" height="1" fill="#4B7AA3" />
<rect x="20" y="9" width="1" height="1" fill="#4B7AA3" />
<rect x="26" y="9" width="1" height="1" fill="#4B7AA3" />
<rect x="0" y="10" width="1" height="1" fill="#4B7AA3" />
<rect x="4" y="10" width="1" height="1" fill="#4B7AA3" />
<rect x="6" y="10" width="1" height="1" fill="#4B7AA3" />
<rect x="8" y="10" width="1" height="1" fill="#4B7AA3" />
<rect x="10" y="10" width="1" height="1" fill="#FAE373" />
<rect x="11" y="10" width="1" height="1" fill="#FAE373" />
<rect x="12" y="10" width="1" height="1" fill="#FAE373" />
<rect x="13" y="10" width="1" height="1" fill="#FAE373" />
<rect x="15" y="10" width="1" height="1" fill="#FAE373" />
<rect x="16" y="10" width="1" height="1" fill="#FAE373" />
<rect x="17" y="10" width="1" height="1" fill="#FAE373" />
<rect x="20" y="10" width="1" height="1" fill="#FAE373" />
<rect x="21" y="10" width="1" height="1" fill="#4B7AA3" />
<rect x="25" y="10" width="1" height="1" fill="#4B7AA3" />
<rect x="0" y="11" width="1" height="1" fill="#4B7AA3" />
<rect x="1" y="11" width="1" height="1" fill="#4B7AA3" />
<rect x="3" y="11" width="1" height="1" fill="#4B7AA3" />
<rect x="4" y="11" width="1" height="1" fill="#4B7AA3" />
<rect x="6" y="11" width="1" height="1" fill="#4B7AA3" />
<rect x="7" y="11" width="1" height="1" fill="#4B7AA3" />
<rect x="8" y="11" width="1" height="1" fill="#4B7AA3" />
<rect x="10" y="11" width="1" height="1" fill="#FAE373" />
<rect x="15" y="11" width="1" height="1" fill="#FAE373" />
<rect x="17" y="11" width="1" height="1" fill="#FAE373" />
<rect x="20" y="11" width="1" height="1" fill="#FAE373" />
<rect x="25" y="11" width="1" height="1" fill="#4B7AA3" />
<rect x="0" y="12" width="1" height="1" fill="#4B7AA3" />
<rect x="2" y="12" width="1" height="1" fill="#4B7AA3" />
<rect x="4" y="12" width="1" height="1" fill="#4B7AA3" />
<rect x="8" y="12" width="1" height="1" fill="#4B7AA3" />
<rect x="10" y="12" width="1" height="1" fill="#FAE373" />
<rect x="11" y="12" width="1" height="1" fill="#FAE373" />
<rect x="12" y="12" width="1" height="1" fill="#FAE373" />
<rect x="13" y="12" width="1" height="1" fill="#FAE373" />
<rect x="15" y="12" width="1" height="1" fill="#FAE373" />
<rect x="17" y="12" width="1" height="1" fill="#FAE373" />
<rect x="20" y="12" width="1" height="1" fill="#FAE373" />
<rect x="26" y="12" width="1" height="1" fill="#4B7AA3" />
<rect x="27" y="12" width="1" height="1" fill="#4B7AA3" />
<rect x="0" y="13" width="1" height="1" fill="#4B7AA3" />
<rect x="4" y="13" width="1" height="1" fill="#4B7AA3" />
<rect x="8" y="13" width="1" height="1" fill="#4B7AA3" />
<rect x="13" y="13" width="1" height="1" fill="#FAE373" />
<rect x="15" y="13" width="1" height="1" fill="#FAE373" />
<rect x="17" y="13" width="1" height="1" fill="#FAE373" />
<rect x="20" y="13" width="1" height="1" fill="#FAE373" />
<rect x="28" y="13" width="1" height="1" fill="#4B7AA3" />
<rect x="0" y="14" width="1" height="1" fill="#4B7AA3" />
<rect x="4" y="14" width="1" height="1" fill="#4B7AA3" />
<rect x="6" y="14" width="1" height="1" fill="#4B7AA3" />
<rect x="8" y="14" width="1" height="1" fill="#4B7AA3" />
<rect x="13" y="14" width="1" height="1" fill="#FAE373" />
<rect x="15" y="14" width="1" height="1" fill="#FAE373" />
<rect x="17" y="14" width="1" height="1" fill="#FAE373" />
<rect x="20" y="14" width="1" height="1" fill="#FAE373" />
<rect x="0" y="15" width="1" height="1" fill="#4B7AA3" />
<rect x="4" y="15" width="1" height="1" fill="#4B7AA3" />
<rect x="6" y="15" width="1" height="1" fill="#4B7AA3" />
<rect x="7" y="15" width="1" height="1" fill="#4B7AA3" />
<rect x="8" y="15" width="1" height="1" fill="#4B7AA3" />
<rect x="10" y="15" width="1" height="1" fill="#FAE373" />
<rect x="11" y="15" width="1" height="1" fill="#FAE373" />
<rect x="12" y="15" width="1" height="1" fill="#FAE373" />
<rect x="13" y="15" width="1" height="1" fill="#FAE373" />
<rect x="15" y="15" width="1" height="1" fill="#FAE373" />
<rect x="16" y="15" width="1" height="1" fill="#FAE373" />
<rect x="17" y="15" width="1" height="1" fill="#FAE373" />
<rect x="18" y="15" width="1" height="1" fill="#FAE373" />
<rect x="20" y="15" width="1" height="1" fill="#FAE373" />
<rect x="21" y="15" width="1" height="1" fill="#FAE373" />
<rect x="22" y="15" width="1" height="1" fill="#FAE373" />
<rect x="23" y="15" width="1" height="1" fill="#FAE373" />
</svg>